# xmcd
#
# Track frame offsets:
#	150
#	17958
#	40377
#	61628
#	81048
#	102031
#	116971
#	137732
#	150611
#	166271
#	177711
#	199355
#
# Disc length: 2939 seconds
#
# Revision: 1
# Processed by: cddbd v1.5.2PL0 Copyright (c) Steve Scherf et al.
# Submitted via: audiograbber 1.83.01
#
DISCID=a20b790c
DTITLE=Ted Sandstedt - En vandrares väg
DYEAR=1900
DGENRE=
TTITLE0=Han kommer snart igen 3,57
TTITLE1=Låt mig åter sjunga sången 4,58
TTITLE2=Jag seglar nu hem 4,43
TTITLE3=Blommor i Hans spår 4,18
TTITLE4=Gud förmår 4,39
TTITLE5=Han som kom att ge oss kärleken 3,19
TTITLE6=Han är min Herre 4,36
TTITLE7=I saw the light 2,51
TTITLE8=Han är din vän 3,28
TTITLE9=En ny dag 2,32
TTITLE10=Till en frälsningssoldat 4,48
TTITLE11=Den sista vandringen 4,41
EXTD=
EXTT0=
EXTT1=
EXTT2=
EXTT3=
EXTT4=
EXTT5=
EXTT6=
EXTT7=
EXTT8=
EXTT9=
EXTT10=
EXTT11=
PLAYORDER=
